<?xml version="1.0" encoding="utf-8"?>
<!-- Generator: Adobe Illustrator 19.0.0, SVG Export Plug-In . SVG Version: 6.00 Build 0)  -->
<svg version="1.1" id="Layer_1" xmlns="http://www.w3.org/2000/svg" xmlns:xlink="http://www.w3.org/1999/xlink" x="0px" y="0px"
	 viewBox="0 0 512 512" style="enable-background:new 0 0 512 512;" xml:space="preserve">
<style type="text/css">
	.st0{fill:#34495E;}
	.st1{fill:#2C3E50;}
</style>
<g id="XMLID_1_">
	<path id="XMLID_3_" class="st0" d="M255.9,0.5c-8.7,0-17.3,1.6-25.2,3.1c-4.7,1.6-9.4,3.1-14.2,4.7l-5.5,2.4l-2.4,1.6
		c-3.9,2.4-8.7,4.7-12.6,7.1l-1.6,0.8l-3.1,2.4c-3.1,2.4-7.1,4.7-10.2,7.1c-3.1,2.4-5.5,5.5-7.9,8.7c-9.4,9.4-16.5,18.9-23.6,30.7
		c-11,18.9-18.9,40.9-22.8,63H122c-11,3.9-14.2,25.2-6.3,47.2c3.9,13.4,11,23.6,18.9,29.1c9.4,37.8,30.7,69.3,57.5,89v22l-21.3,21.3
		l-42.5,21.3c-34.6,17.3-68.5,33.9-103.1,51.2C6.3,424.9-1.6,446.9,0.8,468.2c0.8,13.4-3.9,30.7,9.4,39.4
		c12.6,6.3,27.6,2.4,40.9,3.1c40.1,0,79.5,0,119.7,0c56.7,0,113.4,0,170,0c50.4,0,100.8,0,151.2,0c16.5-0.8,21.3-18.1,19.7-32.3
		c0-19.7,1.6-41.7-14.2-57.5c-12.6-12.6-30.7-18.1-45.7-26.8c-22.8-11-45.7-22-67.7-33.1l-42.5-21.3l-21.3-21.3v-22
		c26.8-19.7,47.2-51.2,57.5-89c7.1-5.5,14.2-16.5,18.9-29.1c7.1-22,4.7-43.3-6.3-47.2h-4.7c-3.1-22-11.8-44.1-22.8-63
		c-6.3-11.8-14.2-21.3-23.6-30.7c-2.4-3.1-5.5-6.3-7.9-8.7h-0.8c-8.7-7.1-17.3-13.4-27.6-18.1c-2.4-1.6-4.7-2.4-7.1-3.1l-5.5-2.4
		c-5.5-1.6-11-3.9-16.5-4.7h-2.4C266.9,1.3,261.4,0.5,255.9,0.5z"/>
	<path id="XMLID_4_" class="st1" d="M0,490.2c0.8,6.3,2.4,12.6,9.4,17.3c12.6,6.3,27.6,2.4,40.9,3.9H170h170H492
		c12.6-2.4,18.1-11,19.7-21.3H0z"/>
</g>
</svg>
